<?xml version="1.0" encoding="UTF-8"?>
<svg width="18px" height="18px" viewBox="0 0 18 18" version="1.1" xmlns="http://www.w3.org/2000/svg" xmlns:xlink="http://www.w3.org/1999/xlink">
    <!-- Generator: Sketch 52.5 (67469) - http://www.bohemiancoding.com/sketch -->
    <title>Icon_full</title>
    <desc>Created with Sketch.</desc>
    <defs>
        <path d="M17.5,11 C17.224,11 17,11.224 17,11.5 L17,16.293 L9.707,9 L16.996,1.711 L16.996,6.5 C16.996,6.776 17.22,7 17.496,7 C17.772,7 17.996,6.776 17.996,6.5 L17.996,0.521 C18.001,0.386 17.957,0.249 17.854,0.146 C17.755,0.049 17.626,0 17.498,0 L17.496,0 L11.5,0 C11.224,0 11,0.224 11,0.5 C11,0.776 11.224,1 11.5,1 L16.293,1 L9,8.293 L1.707,1 L6.5,1 C6.776,1 7,0.776 7,0.5 C7,0.224 6.776,0 6.5,0 L0.504,0 L0.502,0 C0.374,0 0.245,0.049 0.146,0.146 C0.043,0.249 -0.001,0.386 0.004,0.521 L0.004,6.5 C0.004,6.776 0.228,7 0.504,7 C0.78,7 1.004,6.776 1.004,6.5 L1.004,1.711 L8.293,9 L1,16.293 L1,11.5 C1,11.224 0.776,11 0.5,11 C0.224,11 0,11.224 0,11.5 L0,17.5 C0,17.565 0.013,17.63 0.039,17.691 C0.089,17.813 0.187,17.911 0.309,17.962 C0.37,17.986 0.435,18 0.5,18 L6.496,18 C6.772,18 6.996,17.776 6.996,17.5 C6.996,17.224 6.772,17 6.496,17 L1.707,17 L9,9.707 L16.293,17 L11.504,17 C11.228,17 11.004,17.224 11.004,17.5 C11.004,17.776 11.228,18 11.504,18 L17.5,18 C17.565,18 17.63,17.986 17.691,17.962 C17.813,17.911 17.911,17.813 17.961,17.691 C17.987,17.63 18,17.565 18,17.5 L18,11.5 C18,11.224 17.776,11 17.5,11" id="path-1"></path>
    </defs>
    <g id="2.-Style" stroke="none" stroke-width="1" fill="none" fill-rule="evenodd">
        <g id="Iconography" transform="translate(-1194.000000, -460.000000)">
            <g id="ico-/-20-/-map-/-expander" transform="translate(1193.000000, 459.000000)">
                <g id="↳-🎨Color" transform="translate(1.000000, 1.000000)">
                    <mask id="mask-2" fill="white">
                        <use xlink:href="#path-1"></use>
                    </mask>
                    <use id="Mask" fill="#09668A" xlink:href="#path-1"></use>
                    <g id="Color-/-03_neutral-/-grey-01" mask="url(#mask-2)" fill="#6E767D">
                        <g transform="translate(-1.000000, -1.000000)" id="Rectangle-2">
                            <rect x="0" y="0" width="20" height="20"></rect>
                        </g>
                    </g>
                </g>
            </g>
        </g>
    </g>
</svg>